<svg xmlns="http://www.w3.org/2000/svg" viewBox="0 0 317.23 77.4"><defs><style>.cls-1{fill:#fff;}</style></defs><g id="Layer_2" data-name="Layer 2"><g id="Layer_1-2" data-name="Layer 1"><g id="Icon"><path class="cls-1" d="M45.41,66a6.7,6.7,0,1,1-9.47,0A6.7,6.7,0,0,1,45.41,66Z"/><path class="cls-1" d="M24.47,48.59a9.9,9.9,0,0,1-9.86-9.88v-.06a9.9,9.9,0,0,1,9.86-9.88,7.3,7.3,0,1,0-7.25-7.15,9.9,9.9,0,0,1-9.85,9.76A7.3,7.3,0,1,0,7.47,46a9.9,9.9,0,0,1,9.75,9.87,7.3,7.3,0,1,0,7.25-7.26Z"/><path class="cls-1" d="M77.58,33.52a7.24,7.24,0,0,0-5.23-2.14,9.92,9.92,0,0,1-9.84-9.9v0a7.3,7.3,0,1,0-7.15,7.27,9.9,9.9,0,0,1,9.76,9.89h0v.1a9.9,9.9,0,0,1-9.83,9.83,7.3,7.3,0,1,0,7.22,7.28h0A9.92,9.92,0,0,1,72.32,46a7.3,7.3,0,0,0,5.26-12.46Z"/><path class="cls-1" d="M45.37,2a6.7,6.7,0,1,1-9.48,0A6.7,6.7,0,0,1,45.37,2Z"/><path class="cls-1" d="M45.62,33.62a6.7,6.7,0,1,1-9.48,0A6.71,6.71,0,0,1,45.62,33.62Z"/></g><g id="CadLabs"><path class="cls-1" d="M104.22,52.67q-4.95-5.2-5-14t4.89-14q4.86-5.15,12.9-5.15A17.61,17.61,0,0,1,128,23a15.22,15.22,0,0,1,5.67,10h-7.06a9.6,9.6,0,0,0-3.43-5.5,10,10,0,0,0-6.16-1.88,9.36,9.36,0,0,0-7.71,3.48q-2.82,3.48-2.81,9.62t2.78,9.64a9.38,9.38,0,0,0,7.74,3.46,10,10,0,0,0,6.55-2.27,9.58,9.58,0,0,0,3.3-6.29h7q-.68,7-5.47,10.83a17.54,17.54,0,0,1-11.34,3.81Q109.11,57.88,104.22,52.67Z"/><path class="cls-1" d="M187.47,20.34q8.82,0,13.62,4.9t4.79,13.46q0,8.5-4.79,13.41t-13.62,5h-14V20.34Zm-.1,30.74q5.41,0,8.35-3.18t2.94-9.2q0-6-2.94-9.21t-8.35-3.17h-7V51.08Z"/><path class="cls-1" d="M216.55,53.14H235v3.92H212.22V20.34h4.33Z"/><path class="cls-1" d="M288.79,33.59q3.36,3.82,3.36,10.16t-3.36,10.11a11.49,11.49,0,0,1-9,3.82,10.35,10.35,0,0,1-9.13-4.75v4.13h-3.92V20.33h4.13V34.26a10.38,10.38,0,0,1,8.92-4.43A11.55,11.55,0,0,1,288.79,33.59Zm-3.32,17.56a11.51,11.51,0,0,0,2.35-7.6,10.88,10.88,0,0,0-2.3-7.35,8.66,8.66,0,0,0-12.51,0c-1.54,1.79-2.32,4.3-2.32,7.53s.78,5.69,2.32,7.48A7.78,7.78,0,0,0,279.25,54,7.69,7.69,0,0,0,285.47,51.15Z"/><path class="cls-1" d="M295.37,48.6h4.17a6.14,6.14,0,0,0,2,4.26q1.62,1.26,5.13,1.26c4.26,0,6.4-1.38,6.4-4.13a3.13,3.13,0,0,0-1.32-2.73,13.38,13.38,0,0,0-4.77-1.6l-2.47-.46q-8.31-1.55-8.31-7.84a6.59,6.59,0,0,1,2.61-5.49,11.2,11.2,0,0,1,7.09-2q10.58,0,10.83,8.82h-4.13a5.14,5.14,0,0,0-1.75-4.08,8.36,8.36,0,0,0-4.95-1.18,7,7,0,0,0-4.13,1,3.35,3.35,0,0,0-1.44,2.89,3,3,0,0,0,1.24,2.63,11.75,11.75,0,0,0,4.12,1.49l2.37.47q4.9,1,7,2.78a6.24,6.24,0,0,1,2.14,5.06,6.86,6.86,0,0,1-2.81,5.85q-2.81,2.08-7.76,2.09Q296,57.68,295.37,48.6Z"/><path class="cls-1" d="M156.53,20.34h-8.15l-14,36.72h7.16l6.7-19c1.42-3.82,2.8-7.68,4.13-11.61q2.74,8,4.54,12.58l6.45,18h7.37Z"/><path class="cls-1" d="M259.69,47.46h0V37.57q0-7.74-10-7.74-10.31,0-10.83,8.82H243c.14-2,.71-3.33,1.73-4.1s2.67-1.16,5-1.16,3.71.32,4.62,1a3.66,3.66,0,0,1,1.36,3.2q0,3.2-4.17,3.66l-3.82.41q-9.85,1-9.85,8.25a7,7,0,0,0,2.5,5.75,10.6,10.6,0,0,0,6.89,2q5.88,0,8.66-4.28s0,.06,0,.1v3.67h3.82Zm-4-.92a6.75,6.75,0,0,1-2.47,5.62,8.9,8.9,0,0,1-5.78,2,6,6,0,0,1-4-1.16,4,4,0,0,1-1.34-3.22,3.9,3.9,0,0,1,1.42-3.25A9.68,9.68,0,0,1,248.29,45l3.87-.46a6.88,6.88,0,0,0,3.5-1.14Z"/></g></g></g></svg>