<svg xmlns="http://www.w3.org/2000/svg" viewBox="0 0 84.73 79.55"><defs><style>.cls-1{fill:#fafafb;}</style></defs><g id="Layer_2" data-name="Layer 2"><g id="Layer_1-2" data-name="Layer 1"><path class="cls-1" d="M28.06,17.56c0-1.41,0-2.82,0-4.23,0-5.14,3.37-7.41,8.08-5.41.12,0,.26.07.51.14.16-2.52,1.11-4.48,3.67-5.25a5.37,5.37,0,0,1,6,1.81,18.81,18.81,0,0,1,3.17-1.8,5,5,0,0,1,6.73,4.81c0,4.35.06,8.71,0,13.06a3.61,3.61,0,0,0,1.16,2.85c2.06,2.08,2.34,2.15,4.39.08,1.86-1.88,3.61-3.88,5.45-5.78A14.06,14.06,0,0,1,77.92,13.4a8.09,8.09,0,0,1,5.28,2.21,1.74,1.74,0,0,1,.19,2.69,38.61,38.61,0,0,1-3.47,3.88c-1,1-2.29,1.85-3.24,2.94Q74,28.29,71.51,31.66c-3.43,4.69-6.77,9.45-11,13.53-1.36,1.34-2.93,2.45-4.36,3.72a2.23,2.23,0,0,0-.77,1.32c-.19,2.56-.29,5.14-.38,7.71,0,.73-.12,1.35-1,1.39S52.91,58.7,53,58c.14-3,.29-6,.54-8.94a2.18,2.18,0,0,1,.88-1.44,36.15,36.15,0,0,0,9-8.75c3-3.9,5.83-8,8.87-11.86A59.78,59.78,0,0,1,77,22.12c1.35-1.36,2.77-2.65,4.08-4,.87-.91.79-1.11-.35-1.76-2.46-1.42-4.94-1-7.46-.12-2.94,1-4.89,3.22-6.88,5.42-1.24,1.36-2.56,2.65-3.85,4a8.2,8.2,0,0,1-4,2C51.75,29.4,46.19,33.24,41,37.74l-.61.58A1,1,0,1,1,39,36.85c.53-.55,1.1-1.07,1.68-1.57a4.41,4.41,0,0,1,.87-.46l-3.89-2.13a17.1,17.1,0,0,1-3.15,1.56,5,5,0,0,1-6.42-4.92c-.05-2.57,0-5.15,0-7.73a1.76,1.76,0,0,0-.42-1.2A29.1,29.1,0,0,1,22,13.28c-1.95-3.18-3.78-6.42-5.66-9.63a2.89,2.89,0,0,0-4-1.26,2.82,2.82,0,0,0-1.09,3.89c3.52,7,6.13,14.38,8.89,21.68a15.69,15.69,0,0,1,.43,2.77c.89,4.88,3,9.29,5.33,13.62.65,1.23,1.38,2.42,2,3.65a3.14,3.14,0,0,1,.35,1.38c0,2.82,0,5.64,0,8.46v.21c0,.79-.19,1.59-1.12,1.56s-1-.79-1-1.56c0-2.55.05-5.09,0-7.63a4.76,4.76,0,0,0-.57-2.16A68.76,68.76,0,0,1,19.5,35c-.5-1.61-.67-3.32-1.1-5s-1-3.33-1.56-4.95A153.84,153.84,0,0,0,9.41,7.32,5,5,0,0,1,13,.05a5.31,5.31,0,0,1,5.13,2.49c2.4,4,4.8,8.07,7.25,12.07.66,1.08,1.5,2.05,2.26,3.07Zm17.07.94c0-3.55,0-7.1,0-10.65a3.12,3.12,0,1,0-6.23,0q0,10.54,0,21.08c0,2.22,1.08,3.3,3.24,3.31,1.91,0,3-1.18,3-3.32Zm2.78,11.4c2.1-1,4-1.94,5.8-2.91a1.3,1.3,0,0,0,.42-.95q0-9,0-18.06A3,3,0,0,0,50.9,4.69c-1.91,0-3,1.26-3,3.36V29.9Zm-17.7-9.18c0,2.78,0,5.57,0,8.35,0,2,1.12,3.17,3,3.18a2.88,2.88,0,0,0,3.19-3.15c0-5.54,0-11.08,0-16.62a2.88,2.88,0,0,0-3.17-3.16,2.82,2.82,0,0,0-3.07,3.14C30.2,15.21,30.21,18,30.21,20.72Z"/><path class="cls-1" d="M70.52,70.7V63.28c0-.46,0-1,.63-.94a52.51,52.51,0,0,1,8.07.7c4.27,1,6,5.3,5.41,8.94-.53,3.41-2.39,5.9-5.84,6.73a27.35,27.35,0,0,1-5.59.46c-2.68.07-2.68,0-2.68-2.62Zm2.16.1h0c0,1.91,0,3.83,0,5.74,0,.57.16.84.77.81,1.22,0,2.45.07,3.65-.08A5.63,5.63,0,0,0,82,73.86,8.55,8.55,0,0,0,82.35,69a5.32,5.32,0,0,0-3.24-4.18c-1.73-.78-3.53-.62-5.33-.69-.84,0-1.16.2-1.12,1.1C72.73,67.11,72.68,69,72.68,70.8Z"/><path class="cls-1" d="M67.9,79.19c-.61,0-1,0-1.44,0-.58,0-.85-.19-1-.77-.31-1.1-.75-2.16-1.09-3.25a1.07,1.07,0,0,0-1.21-.86q-2.82.08-5.64,0a1.15,1.15,0,0,0-1.34,1c-.2.77-.51,1.51-.75,2.27-.57,1.79-.56,1.79-2.58,1.54.34-1,.66-1.87,1-2.79,1.63-4.43,3.28-8.85,4.87-13.29a.94.94,0,0,1,1.19-.67c.72.1,1.68-.46,2.08.64ZM60.46,64.53l-.35,0c-.94,2.58-1.88,5.16-2.86,7.83h6.07Z"/><path class="cls-1" d="M31.9,67V61.69h1.92V79c-1.51.41-1.72.32-2.08-1-.31.17-.61.3-.88.48-3.45,2.3-7.37.49-7.84-3.64a9.06,9.06,0,0,1,.73-5.77,5.48,5.48,0,0,1,7-2.52Zm0,5.57c0-1,0-2.09,0-3.13a1.27,1.27,0,0,0-.35-.91c-1.92-1.48-5.51-.5-6.2,1.8a12.46,12.46,0,0,0-.38,4c.09,2.57,1.64,3.75,4.17,3.38a2.85,2.85,0,0,0,2.78-3.16Z"/><path class="cls-1" d="M17.67,79.19l-.21-1.31a9.64,9.64,0,0,0-.9.51,5.94,5.94,0,0,1-3.84,1.12,4.14,4.14,0,0,1-.45-8.19,43.64,43.64,0,0,1,4.43-.59c.8-.08,1-.38.76-1.17A2.09,2.09,0,0,0,15.37,68a16.12,16.12,0,0,0-2.6,0c-.86.08-1.7.31-2.54.47-.53-1.43-.28-1.94,1.13-2a30.35,30.35,0,0,1,4.67,0,3.5,3.5,0,0,1,3.42,3.65c.11,2.82.06,5.64,0,8.46,0,.23-.39.55-.66.64A3.91,3.91,0,0,1,17.67,79.19Zm-.09-4.78a4.64,4.64,0,0,0,0-1.24c-.08-.28-.44-.68-.66-.67a22.21,22.21,0,0,0-4,.5A2.42,2.42,0,0,0,11,76.11c.19,1.11,1,1.61,2.64,1.61.24,0,.49,0,.73,0A3,3,0,0,0,17.58,74.41Z"/><path class="cls-1" d="M51.34,75.73c.34,2.22.32,2.35-1.45,3-3.11,1.12-6.19,1.31-9.09-.62a6.85,6.85,0,0,1-2.92-4.65c-.52-2.76-.47-5.5,1.1-8,1.65-2.61,4.23-3.53,7.17-3.43a14.2,14.2,0,0,1,3.57.7c1.92.58,2,.85,1.62,3l-1.58-1a7.93,7.93,0,0,0-5.65-.89,4.58,4.58,0,0,0-3.33,2.48,9.36,9.36,0,0,0-.64,7.2c1.26,4.29,5.2,4.88,8.79,3.57a7.72,7.72,0,0,0,1.22-.61C50.52,76.35,50.87,76.07,51.34,75.73Z"/><path class="cls-1" d="M2.06,68.14a35.17,35.17,0,0,1,3.52-1.49c1.9-.58,2.46,0,2,2.16a5.45,5.45,0,0,0-1-.1A9.47,9.47,0,0,0,4.14,69C2.21,69.6,2,70,2,72s0,4.17,0,6.26c0,.77-.28.94-1,.93s-1-.06-1-.88c0-3.65,0-7.31,0-11,0-.76.29-.94,1-.93s1.11.08,1,.9A3.66,3.66,0,0,0,2.06,68.14Z"/></g></g></svg>